<?xml version="1.0" encoding="iso-8859-1"?>
<!-- Generator: Adobe Illustrator 16.0.0, SVG Export Plug-In . SVG Version: 6.00 Build 0)  -->
<!DOCTYPE svg PUBLIC "-//W3C//DTD SVG 1.1//EN" "http://www.w3.org/Graphics/SVG/1.1/DTD/svg11.dtd">
<svg version="1.1" id="Capa_1" xmlns="http://www.w3.org/2000/svg" xmlns:xlink="http://www.w3.org/1999/xlink" x="0px" y="0px"
	 width="93.685px" height="93.684px" viewBox="0 0 93.685 93.684" style="enable-background:new 0 0 93.685 93.684;"
	 xml:space="preserve">
<g>
	<g>
		<path d="M93.076,47.184c-4.217-1.883-7.946-4.288-11.885-6.398c-2.824-1.513-5.994-2.537-8.859-3.976
			c-5.028-2.526-10.038-5.108-15.051-7.666c-0.764-0.39-1.562-0.729-2.358-1.045c-0.36-0.143-0.511-0.315-0.562-0.709
			c-0.342-2.665-1.26-5.124-2.729-7.376c-0.464-0.711-0.886-0.722-1.175,0.071c-0.321,0.882-0.551,1.821-0.661,2.753
			c-0.226,1.892-0.017,3.747,0.774,5.512c0.57,1.276,0.308,2.245-0.889,2.96c-0.693,0.413-1.469,0.691-2.215,1.01
			c-0.411,0.176-0.839,0.313-1.467,0.544c0.401,0.148,0.608,0.262,0.828,0.3c1.773,0.312,3.514,0.2,5.214-0.42
			c1.269-0.463,1.952-1.413,2.233-2.687c0.093-0.414,0.131-0.839,0.211-1.367c0.822,0.826,1.348,1.748,1.795,2.722
			c0.637,1.381,0.826,2.858,0.941,4.354c0.153,1.987,0.615,2.315,2.557,1.868c0.617-0.142,1.23-0.31,1.854-0.417
			c1.361-0.234,2.641-0.005,3.686,0.936c2.324,2.09,4.588,4.249,6.356,6.847c1.081,1.587,0.925,2.656-0.466,4.028
			c-1.275,1.26-2.831,2.092-4.462,2.786c-3.411,1.45-6.96,2.291-10.681,2.264c-2.576-0.019-5.045-0.432-7.035-2.301
			c-0.065,0.033-0.131,0.067-0.196,0.102c0.341,0.856,0.603,1.756,1.038,2.561c1.164,2.146,3.105,3.278,5.391,3.909
			c2.538,0.702,5.127,0.607,7.689,0.303c3.75-0.447,7.479-1.077,11.223-1.575c1.312-0.175,2.651-0.281,3.973-0.244
			c0.707,0.02,1.4,0.411,2.293,0.695c-0.283,0.17-0.362,0.233-0.453,0.268C73.766,60.15,67.5,62.37,60.936,63.608
			c-6.25,1.178-12.502,1.322-18.754,0.022c-0.309-0.063-0.617-0.135-1.027-0.225c1.78-3.428,4.415-5.936,7.618-7.972
			c-0.174,0.033-0.353,0.054-0.521,0.103c-3.586,1.017-6.248,3.268-8.339,6.269c-0.773,1.11-0.793,1.207-2.045,0.67
			c-3.57-1.531-7.123-3.105-10.653-4.729c-3.534-1.625-7.043-3.303-10.82-4.312c-0.979-0.262-1.976-0.461-3.042-0.706
			c8.396-10.868,19.13-18.33,32.112-22.685c-0.296,0.029-0.593,0.051-0.888,0.088c-6.501,0.811-12.392,3.251-17.872,6.756
			c-6.328,4.048-11.638,9.171-16.005,15.277c-0.409,0.572-2.571,4.25-0.637,6.223c-0.015-0.305-0.156-4.75,2.908-4.323
			c2.618,0.363,5.129,1.139,7.535,2.197c4.157,1.83,8.263,3.777,12.411,5.629c1.67,0.745,3.396,1.368,5.095,2.048
			c0.141,0.056,0.281,0.116,0.396,0.164c-0.57,1.467-1.189,2.871-1.664,4.323c-0.539,1.646-0.948,3.321-1.105,5.037
			c0.989,0.272,1.984,0.519,2.984,0.736c0.001-0.104,0.004-0.209,0.008-0.314c0.121-2.848,0.523-5.629,1.531-8.306
			c0.087-0.233,0.184-0.462,0.282-0.691c0.001-0.004,0.004-0.005,0.006-0.009c2.188,0.363,4.292,0.82,6.42,1.045
			c6.302,0.668,12.463-0.245,18.538-1.882c5.188-1.398,10.176-3.344,15.037-5.618c0.428-0.199,0.725-0.215,1.082,0.106
			c0.334,0.299,0.699,0.631,1.109,0.765c0.669,0.217,1.393,0.399,2.086,0.385c1.1-0.021,2.197-0.289,3.299-0.331
			c1.643-0.062,2.815-0.924,3.787-2.121c0.525-0.646,0.684-1.466,0.555-2.271c-0.198-1.221,0.103-2.371,0.662-3.441
			c0.041-0.08,0.231-0.315,0.272-0.396c0.657-1.279,0.388-2.161-0.124-3.838C93.141,47.249,93.107,47.216,93.076,47.184z
			 M85.221,52.602c-1.697,1.071-3.598,1.569-5.561,1.84c-1.407,0.192-2.801,0.089-4.158-0.359c-1.076-0.356-1.18-0.841-0.324-1.611
			c0.521-0.469,1.075-0.9,1.61-1.353c1.682-1.42,2.175-2.948,1.456-4.74c-0.258-0.644-0.598-1.28-1.016-1.83
			c-0.965-1.269-2.002-2.483-3.039-3.754c0.107,0.021,0.199,0.017,0.27,0.054c2.176,1.154,4.389,2.246,6.511,3.491
			c1.871,1.098,3.675,2.328,4.993,4.119C87.156,50.079,86.908,51.538,85.221,52.602z"/>
		<path d="M27.232,34.83c3.411-2.375,7.143-4.154,11.195-5.196c0.096-0.025,0.183-0.084,0.274-0.128
			c-0.013-0.059-0.026-0.118-0.039-0.178c-1.468,0.199-2.946,0.346-4.403,0.606c-5.598,0.998-10.6,3.401-15.252,6.592
			c-2.758,1.892-5.461,3.864-8.249,5.71c-1.841,1.219-3.84,2.116-6.129,2.121C2.941,44.361,1.451,43.756,0,42.894
			c1.826,3.646,4.931,5.821,9.118,4.264c2.422-0.902,4.515-2.363,6.575-3.875C19.537,40.46,23.321,37.553,27.232,34.83z"/>
		<path d="M16.485,33.4c2.421,0.038,4.697-0.64,6.938-1.437c3.811-1.355,7.582-2.824,11.413-4.115
			c2.8-0.943,5.701-1.454,8.685-1.158c0.688,0.068,1.37,0.205,2.222,0.336c-0.262-0.184-0.379-0.282-0.509-0.356
			c-4.26-2.408-8.772-2.724-13.395-1.411c-3.019,0.858-5.967,1.96-8.949,2.943c-2.07,0.682-4.17,1.209-6.371,1.217
			c-2.158,0.007-4.154-0.558-6.003-1.662c-0.167-0.1-0.337-0.194-0.554-0.319C10.863,31.394,13.273,33.35,16.485,33.4z"/>
		<path d="M59.466,26.276c-1.03,0.621-2.19,1.028-3.307,1.537c2.594,0.159,5.225,0.18,7.755-0.801
			c0.417-0.161,0.824-0.381,1.184-0.647c1.291-0.959,1.399-2.174,0.299-3.356c-1.375-1.479-3.211-2.142-5.058-2.769
			c-0.573-0.194-1.165-0.332-1.946-0.551c0.768,0.768,1.479,1.322,1.99,2.023C61.633,23.425,61.294,25.175,59.466,26.276z"/>
	</g>
</g>
<g>
</g>
<g>
</g>
<g>
</g>
<g>
</g>
<g>
</g>
<g>
</g>
<g>
</g>
<g>
</g>
<g>
</g>
<g>
</g>
<g>
</g>
<g>
</g>
<g>
</g>
<g>
</g>
<g>
</g>
</svg>
